<svg width="43" height="43" viewBox="0 0 43 43" fill="none" xmlns="http://www.w3.org/2000/svg">
<path d="M0.436625 22.3101C-0.147658 22.8974 -0.145224 23.8471 0.442061 24.4314C1.02935 25.0157 1.97909 25.0133 2.56337 24.426L0.436625 22.3101ZM20.3598 1.6688L20.7628 0.223965V0.223965L20.3598 1.6688ZM25.1332 3.00037L25.5363 1.55553V1.55553L25.1332 3.00037ZM27.1935 4.36824L26.0283 5.31281V5.31281L27.1935 4.36824ZM38.6962 22.142L37.331 22.7634V22.7634L38.6962 22.142ZM14.7859 4.59559L13.6827 3.57925V3.57925L14.7859 4.59559ZM19.2615 10.9768L19.0172 9.49688L19.0172 9.49688L19.2615 10.9768ZM24.9697 13.6139L26.1595 12.7004L26.1595 12.7004L24.9697 13.6139ZM26.9253 20.7678L25.4344 20.9329V20.9329L26.9253 20.7678ZM28.4272 24.6376L27.5851 25.8789C28.2155 26.3066 29.0664 26.1938 29.5636 25.6167C30.0608 25.0396 30.0466 24.1815 29.5304 23.6212L28.4272 24.6376ZM12.7507 25.9563C12.2373 26.6065 12.3482 27.5497 12.9984 28.0631C13.6485 28.5765 14.5918 28.4657 15.1052 27.8155L12.7507 25.9563ZM12.7143 8.23286L11.2366 8.49053V8.49053L12.7143 8.23286ZM41.0563 32.7078L42.4495 33.2637V33.2637L41.0563 32.7078ZM32.5727 37.9915L33.0418 39.4162V39.4162L32.5727 37.9915ZM22.422 10.7484L22.9931 9.36133L22.9931 9.36133L22.422 10.7484ZM17.9089 38.2986L18.9859 39.3428L18.9859 39.3427L17.9089 38.2986ZM2.60322 37.1112C2.04192 36.5019 1.09297 36.463 0.483677 37.0243C-0.125613 37.5856 -0.164517 38.5346 0.396783 39.1439L2.60322 37.1112ZM18.2591 37.8091L18.8053 36.4121C18.1207 36.1444 17.3429 36.4124 16.9684 37.0449L18.2591 37.8091ZM18.1905 37.9251L16.8998 37.1609L16.8997 37.1609L18.1905 37.9251ZM19.0609 23.1569L19.5194 24.5852L19.0609 23.1569ZM19.9567 3.11364L24.7302 4.4452L25.5363 1.55553L20.7628 0.223965L19.9567 3.11364ZM26.0283 5.31281C31.2006 11.6934 34.5144 16.5751 37.331 22.7634L40.0615 21.5206C37.1014 15.0169 33.6204 9.9145 28.3588 3.42367L26.0283 5.31281ZM25.4344 20.9329C25.6061 22.4838 26.1078 24.3337 27.3241 25.6539L29.5304 23.6212C28.9439 22.9846 28.558 21.8841 28.4162 20.6028L25.4344 20.9329ZM23.7799 14.5273C24.1726 15.0388 24.4454 15.3944 24.6366 15.6601C24.8494 15.9557 24.871 16.02 24.8538 15.9767L27.6418 14.8689C27.5058 14.5267 27.2748 14.1899 27.0714 13.9074C26.8465 13.595 26.5396 13.1956 26.1595 12.7004L23.7799 14.5273ZM28.4162 20.6028C28.2304 18.9252 28.0895 17.6525 27.9802 16.7629C27.9256 16.3192 27.877 15.955 27.8329 15.6762C27.7991 15.4631 27.7445 15.1275 27.6418 14.8689L24.8538 15.9767C24.8104 15.8676 24.8236 15.8543 24.8698 16.1458C24.9056 16.3717 24.9492 16.6943 25.0026 17.1289C25.1092 17.9961 25.2477 19.2465 25.4344 20.9329L28.4162 20.6028ZM13.6827 3.57925C12.9623 4.36124 12.2813 5.09202 11.8384 5.79017C11.3413 6.57373 11.0546 7.44677 11.2366 8.49053L14.192 7.97518C14.1704 7.8513 14.1612 7.72893 14.3716 7.39737C14.6361 6.9804 15.0928 6.47636 15.8891 5.61194L13.6827 3.57925ZM37.331 22.7634C38.5196 25.3748 39.3312 27.1695 39.7327 28.6637C40.1116 30.0743 40.0871 31.0895 39.6632 32.1519L42.4495 33.2637C43.1695 31.4592 43.133 29.7577 42.6299 27.8853C42.1493 26.0964 41.2089 24.0417 40.0615 21.5206L37.331 22.7634ZM33.0418 39.4162C35.4344 38.6285 37.4302 37.9779 38.9505 37.131C40.5679 36.2299 41.7301 35.0669 42.4495 33.2637L39.6632 32.1519C39.2387 33.2158 38.6055 33.889 37.4905 34.5102C36.2781 35.1856 34.6041 35.7434 32.1036 36.5667L33.0418 39.4162ZM19.5059 12.4568C20.413 12.307 21.013 12.2089 21.4524 12.1682C21.928 12.1242 21.9581 12.1795 21.8509 12.1354L22.9931 9.36133C22.3774 9.10783 21.7113 9.13144 21.1758 9.18102C20.6041 9.23396 19.878 9.35477 19.0172 9.49688L19.5059 12.4568ZM16.832 37.2545C15.0726 39.0691 12.4158 40.025 9.67951 39.9996C6.94356 39.9742 4.31533 38.9697 2.60322 37.1112L0.396783 39.1439C2.77411 41.7245 6.25379 42.9679 9.65166 42.9995C13.0492 43.031 16.5521 41.8529 18.9859 39.3428L16.832 37.2545ZM32.1036 36.5667C27.4402 38.1021 23.4875 38.2427 18.8053 36.4121L17.7129 39.2061C23.1463 41.3304 27.827 41.1332 33.0418 39.4162L32.1036 36.5667ZM19.4812 38.6893L19.5499 38.5733L16.9684 37.0449L16.8998 37.1609L19.4812 38.6893ZM18.9859 39.3427C19.1894 39.1328 19.3516 38.9082 19.4813 38.6892L16.8997 37.1609C16.87 37.2112 16.846 37.24 16.832 37.2545L18.9859 39.3427ZM29.2694 23.3963C27.1574 21.9635 22.9457 20.3346 18.6025 21.7287L19.5194 24.5852C22.6923 23.5667 25.9408 24.7634 27.5851 25.8789L29.2694 23.3963ZM18.6025 21.7287C16.5344 22.3925 14.5152 23.7219 12.7507 25.9563L15.1052 27.8155C16.5218 26.0216 18.0512 25.0564 19.5194 24.5852L18.6025 21.7287ZM20.0901 22.0657C17.4918 19.6151 13.7889 18.4803 10.2127 18.5186C6.63681 18.557 2.9627 19.7711 0.436625 22.3101L2.56337 24.426C4.41059 22.5693 7.26141 21.5504 10.2449 21.5185C13.2281 21.4865 16.1189 22.444 18.0317 24.2481L20.0901 22.0657ZM21.8509 12.1354C22.0064 12.1994 22.2627 12.4035 22.6435 12.9076C22.8207 13.1423 22.9922 13.3957 23.1823 13.6778C23.3621 13.9446 23.5687 14.2522 23.7799 14.5273L26.1595 12.7004C26.0156 12.5131 25.8632 12.2877 25.6699 12.001C25.4869 11.7295 25.2712 11.409 25.0372 11.0993C24.5955 10.5145 23.9329 9.74829 22.9931 9.36133L21.8509 12.1354ZM24.7302 4.4452C25.0485 4.53402 25.2273 4.58517 25.3584 4.63103C25.4171 4.65155 25.4494 4.66535 25.4662 4.67325C25.4742 4.67702 25.4786 4.67939 25.4803 4.68037C25.4813 4.68089 25.4818 4.6812 25.4819 4.6813C25.482 4.68136 25.4821 4.6814 25.4821 4.68141C25.4821 4.68142 25.4821 4.68143 25.4822 4.68144C25.4822 4.68144 25.4822 4.68147 25.4823 4.68152C25.4823 4.68157 25.4825 4.68166 25.4827 4.6818C25.483 4.68207 25.4838 4.68264 25.485 4.6836C25.4874 4.68545 25.4924 4.68943 25.5002 4.69652C25.5168 4.71135 25.5449 4.73854 25.5901 4.78791C25.6898 4.89686 25.8141 5.0486 26.0283 5.31281L28.3588 3.42367C28.0046 2.9868 27.6374 2.51169 27.1428 2.18296C26.6406 1.84921 26.0631 1.70248 25.5363 1.55553L24.7302 4.4452ZM20.7628 0.223965C18.9453 -0.283028 17.5008 0.11728 16.3134 0.957438C15.2896 1.68185 14.3799 2.82255 13.6827 3.57925L15.8891 5.61194C16.835 4.58528 17.3666 3.88723 18.0462 3.40642C18.5621 3.04135 19.0831 2.86994 19.9567 3.11364L20.7628 0.223965ZM11.2366 8.49053C11.6047 10.6012 13.4943 11.6287 14.9718 12.0883C16.5276 12.5722 18.2923 12.6572 19.5059 12.4568L19.0172 9.49688C18.2764 9.61918 16.9839 9.57232 15.8627 9.22363C14.6633 8.85058 14.2565 8.34485 14.192 7.97518L11.2366 8.49053Z" fill="#141B34"/>
</svg>
