<svg width="35" height="43" viewBox="0 0 35 43" fill="none" xmlns="http://www.w3.org/2000/svg">
<path d="M1.50037 25.6391C3.52936 25.6391 6.36281 25.0369 8.13924 26.3386L11.6641 28.9215C12.9737 29.8811 14.3921 29.5651 15.8533 29.3356C17.7782 29.0334 19.5004 30.6751 19.5004 32.8123C19.5004 33.3964 15.3548 34.8809 14.7556 35.1632C13.5785 35.7177 12.2263 35.5812 11.1608 34.8004L7.18458 31.8868" stroke="#141B34" stroke-width="3" stroke-linecap="round" stroke-linejoin="round"/>
<path d="M19.5004 31.5L27.6824 27.7191C29.1492 27.208 30.7665 27.6071 31.8598 28.75L33.2013 30.1525C33.6808 30.6537 33.568 31.4953 32.9753 31.8395L17.2662 40.963C16.3198 41.5126 15.2033 41.6467 14.1622 41.3358L1.50037 37.5539" stroke="#141B34" stroke-width="3" stroke-linecap="round" stroke-linejoin="round"/>
<path d="M17.5043 21.5C17.5043 21.5 21.7043 17.0228 21.7043 11.5C21.7043 5.97715 17.5043 1.5 17.5043 1.5C17.5043 1.5 13.3043 5.97715 13.3043 11.5C13.3043 17.0228 17.5043 21.5 17.5043 21.5ZM17.5043 21.5C17.5043 21.5 23.6383 21.3633 27.5043 17.4184C31.3703 13.4735 31.5043 7.21429 31.5043 7.21429C31.5043 7.21429 28.9654 7.27088 26.1249 8.36174M17.5043 21.5C17.5043 21.5 11.3703 21.3633 7.50427 17.4184C3.63828 13.4735 3.50427 7.21429 3.50427 7.21429C3.50427 7.21429 6.04318 7.27088 8.88362 8.36174" stroke="#141B34" stroke-width="3" stroke-linecap="round" stroke-linejoin="round"/>
</svg>
