<svg width="40" height="40" viewBox="0 0 40 40" fill="none" xmlns="http://www.w3.org/2000/svg">
<path d="M13.1433 16.6667C14.2862 18.9947 15.5074 21.1748 15.2253 23.857C14.7745 28.1448 9.57521 29.7587 6.25036 31.7341C4.07208 33.0282 4.88651 36.6667 7.5597 36.6667C10.8008 36.6667 13.6935 36.408 16.6177 35.0335L22.3518 31.5047C23.1478 31.1305 24.1521 31.29 25 31.6667" stroke="#141B34" stroke-width="3" stroke-linecap="round" stroke-linejoin="round"/>
<path d="M26.6842 16.6667C25.517 18.9947 24.27 21.1748 24.558 23.857C25.0184 28.1448 30.3279 29.7587 33.7231 31.7341C35.9476 33.0282 35.1159 36.6667 32.3861 36.6667C29.0763 36.6667 26.1224 36.408 23.1362 35.0335L17.2805 31.5047C16.597 31.1901 15.763 31.2528 15 31.5047" stroke="#141B34" stroke-width="3" stroke-linecap="round" stroke-linejoin="round"/>
<path d="M16.6667 6.66668C16.6667 8.50763 18.1591 10 20 10C21.841 10 23.3334 8.50763 23.3334 6.66668C23.3334 4.82573 21.841 3.33334 20 3.33334C18.1591 3.33334 16.6667 4.82573 16.6667 6.66668Z" stroke="#141B34" stroke-width="3"/>
<path d="M5 26.6667C9.07643 26.6667 10.9061 22.1581 11.4889 19.0485C11.641 18.2368 11.8874 17.4275 12.4271 16.8023C14.2609 14.6779 16.9734 13.3333 20 13.3333C23.0266 13.3333 25.7391 14.6779 27.5729 16.8023C28.1126 17.4275 28.359 18.2368 28.5111 19.0485C29.0939 22.1581 30.9236 26.6667 35 26.6667" stroke="#141B34" stroke-width="3" stroke-linecap="round" stroke-linejoin="round"/>
</svg>
